<svg width="22" height="21" viewBox="0 0 22 21" fill="none" xmlns="http://www.w3.org/2000/svg">
<path d="M1 8.88513C1 8.88513 5.74447 7.6224 8.21889 13.0249C10.6933 18.4275 15.4378 17.1648 15.4378 17.1648" stroke="url(#paint0_linear)" stroke-width="3"/>
<path d="M1 8.88513C1 8.88513 5.74447 7.6224 8.21889 13.0249C10.6933 18.4275 15.4378 17.1648 15.4378 17.1648" stroke="white" stroke-opacity="0.1" stroke-width="3"/>
<path d="M1 8.88513C1 8.88513 5.74447 7.6224 8.21889 13.0249C10.6933 18.4275 15.4378 17.1648 15.4378 17.1648" stroke="white" stroke-width="3"/>
<path d="M6.29932 3.03052C6.29932 3.03052 11.0438 1.76778 13.5182 7.17034C15.9926 12.5729 20.7371 11.3102 20.7371 11.3102" stroke="url(#paint1_linear)" stroke-width="3"/>
<path d="M6.29932 3.03052C6.29932 3.03052 11.0438 1.76778 13.5182 7.17034C15.9926 12.5729 20.7371 11.3102 20.7371 11.3102" stroke="white" stroke-opacity="0.1" stroke-width="3"/>
<path d="M6.29932 3.03052C6.29932 3.03052 11.0438 1.76778 13.5182 7.17034C15.9926 12.5729 20.7371 11.3102 20.7371 11.3102" stroke="white" stroke-width="3"/>
<defs>
<linearGradient id="paint0_linear" x1="6.69336" y1="7.36985" x2="9.70625" y2="18.6902" gradientUnits="userSpaceOnUse">
<stop stop-color="#1A53FF"/>
<stop offset="1" stop-color="#1712FC"/>
</linearGradient>
<linearGradient id="paint1_linear" x1="11.9927" y1="1.51524" x2="15.0056" y2="12.8356" gradientUnits="userSpaceOnUse">
<stop stop-color="#1A53FF"/>
<stop offset="1" stop-color="#1712FC"/>
</linearGradient>
</defs>
</svg>
